<svg id="visual" viewBox="0 0 900 600" width="900" height="600" xmlns="http://www.w3.org/2000/svg" xmlns:xlink="http://www.w3.org/1999/xlink" version="1.1"><rect x="0" y="0" width="900" height="600" fill="#000000"></rect><defs><linearGradient id="grad1_0" x1="33.3%" y1="100%" x2="100%" y2="0%"><stop offset="20%" stop-color="#000000" stop-opacity="1"></stop><stop offset="80%" stop-color="#000000" stop-opacity="1"></stop></linearGradient></defs><defs><linearGradient id="grad2_0" x1="0%" y1="100%" x2="66.7%" y2="0%"><stop offset="20%" stop-color="#000000" stop-opacity="1"></stop><stop offset="80%" stop-color="#000000" stop-opacity="1"></stop></linearGradient></defs><g transform="translate(900, 600)"><path d="M-297.5 0C-280 -32.9 -262.6 -65.8 -251.3 -104.1C-240 -142.4 -234.8 -186.2 -210.3 -210.3C-185.8 -234.5 -142 -239.1 -103.7 -250.4C-65.4 -261.6 -32.7 -279.5 0 -297.5L0 0Z" fill="#1c1c1c"></path></g><g transform="translate(0, 0)"><path d="M297.5 0C287.5 37.4 277.5 74.8 262.4 108.7C247.3 142.6 227 173.1 202.2 202.2C177.5 231.4 148.3 259.2 113.8 274.8C79.4 290.5 39.7 294 0 297.5L0 0Z" fill="#1c1c1c"></path></g></svg>